<svg xmlns="http://www.w3.org/2000/svg" xmlns:xlink="http://www.w3.org/1999/xlink" width="390" height="390" viewBox="0 0 390 390" fill="none"><g opacity="1"  transform="translate(0 0)  rotate(0)"><path id="矩形 1" fill-rule="evenodd" style="fill:#000000" opacity="1" d="M226 0C285.33 0 314.99 0 337.04 11.76Q338.671 12.6293 340.268 13.5582Q341.865 14.4871 343.427 15.4744Q344.989 16.4617 346.513 17.506Q348.038 18.5503 349.523 19.6503Q351.007 20.7502 352.451 21.9042Q353.894 23.0582 355.293 24.2648Q356.693 25.4713 358.047 26.7288Q359.401 27.9862 360.707 29.2928Q362.014 30.5994 363.271 31.9534Q364.529 33.3073 365.735 34.7068Q366.942 36.1063 368.096 37.5495Q369.25 38.9926 370.35 40.4773Q371.45 41.9621 372.494 43.4865Q373.538 45.0109 374.526 46.5728Q375.513 48.1348 376.442 49.7321Q377.371 51.3294 378.24 52.96C390 75.01 390 104.67 390 164L390 226C390 285.33 390 314.99 378.24 337.04Q377.371 338.671 376.442 340.268Q375.513 341.865 374.526 343.427Q373.538 344.989 372.494 346.513Q371.45 348.038 370.35 349.523Q369.25 351.007 368.096 352.451Q366.942 353.894 365.735 355.293Q364.529 356.693 363.271 358.047Q362.014 359.401 360.707 360.707Q359.401 362.014 358.047 363.271Q356.693 364.529 355.293 365.735Q353.894 366.942 352.451 368.096Q351.007 369.25 349.523 370.35Q348.038 371.45 346.513 372.494Q344.989 373.538 343.427 374.526Q341.865 375.513 340.268 376.442Q338.671 377.371 337.04 378.24C314.99 390 285.33 390 226 390L164 390C104.67 390 75.01 390 52.96 378.24Q51.3294 377.371 49.7321 376.442Q48.1348 375.513 46.5728 374.526Q45.0109 373.538 43.4865 372.494Q41.9621 371.45 40.4773 370.35Q38.9926 369.25 37.5495 368.096Q36.1063 366.942 34.7068 365.735Q33.3073 364.529 31.9534 363.271Q30.5994 362.014 29.2928 360.707Q27.9862 359.401 26.7288 358.047Q25.4713 356.693 24.2648 355.293Q23.0582 353.894 21.9042 352.451Q20.7502 351.007 19.6503 349.523Q18.5503 348.038 17.506 346.513Q16.4617 344.989 15.4744 343.427Q14.4871 341.865 13.5582 340.268Q12.6293 338.671 11.76 337.04C0 314.99 0 285.33 0 226L0 164C0 104.67 0 75.01 11.76 52.96Q12.6293 51.3294 13.5582 49.7321Q14.4871 48.1348 15.4744 46.5728Q16.4617 45.0109 17.506 43.4865Q18.5503 41.9621 19.6503 40.4773Q20.7502 38.9926 21.9042 37.5495Q23.0582 36.1063 24.2648 34.7068Q25.4713 33.3073 26.7288 31.9534Q27.9862 30.5994 29.2928 29.2928Q30.5994 27.9862 31.9534 26.7288Q33.3073 25.4713 34.7068 24.2648Q36.1063 23.0582 37.5495 21.9042Q38.9926 20.7502 40.4773 19.6503Q41.9621 18.5503 43.4865 17.506Q45.0109 16.4617 46.5728 15.4744Q48.1348 14.4871 49.7321 13.5582Q51.3294 12.6293 52.96 11.76C75.01 0 104.67 0 164 0L226 0Z"></path><g opacity="1"  transform="translate(66 46)  rotate(0)"><path id="多边形 1 (轮廓)" fill-rule="evenodd" style="fill:#FFFFFF" opacity="1" d="M129.44 0L0 74.74L0 224.2L129.44 298.94L258.88 224.2L240.44 213.23L129.44 277L129.44 0ZM19 85.7L19 213.23L129.44 277L129.44 21.94L19 85.7Z"></path><path  id="三角形 1" style="fill:#FFFCFC; opacity:1;" d="M147.69 16.3398L147.69 124.6L138.19 124.6L133.44 116.373L227.19 62.2427L231.94 70.4698L227.19 78.6969L133.44 24.5669L138.19 16.3398L147.69 16.3398ZM128.69 -0.115199L250.939 70.4698L128.69 141.055L128.69 16.3398L128.69 -0.115199Z"></path><path  id="三角形 1" style="fill:#FFFFFF; opacity:1;" d="M147.69 114.34L147.69 222.6L138.19 222.6L133.44 214.373L227.19 160.243L231.94 168.47L227.19 176.697L133.44 122.567L138.19 114.34L147.69 114.34ZM128.69 97.8848L250.939 168.47L128.69 239.055L128.69 114.34L128.69 97.8848Z"></path></g></g></svg>