<svg xmlns="http://www.w3.org/2000/svg" xmlns:xlink="http://www.w3.org/1999/xlink" width="258.8800048828125" height="299.0552062988281" viewBox="0 0 258.8800048828125 299.0552062988281" fill="none"><g opacity="1"  transform="translate(0 0.115203857421875)  rotate(0)"><path id="多边形 1 (轮廓)" fill-rule="evenodd" style="fill:#000000" opacity="1" d="M129.44 0L0 74.74L0 224.2L129.44 298.94L258.88 224.2L240.44 213.23L129.44 277L129.44 0ZM19 85.7L19 213.23L129.44 277L129.44 21.94L19 85.7Z"></path><path  id="三角形 1" style="fill:#000000; opacity:1;" d="M147.69 16.3398L147.69 124.6L138.19 124.6L133.44 116.373L227.19 62.2427L231.94 70.4698L227.19 78.6969L133.44 24.5669L138.19 16.3398L147.69 16.3398ZM128.69 -0.115199L250.939 70.4698L128.69 141.055L128.69 16.3398L128.69 -0.115199Z"></path><path  id="三角形 1" style="fill:#000000; opacity:1;" d="M147.69 114.34L147.69 222.6L138.19 222.6L133.44 214.373L227.19 160.243L231.94 168.47L227.19 176.697L133.44 122.567L138.19 114.34L147.69 114.34ZM128.69 97.8848L250.939 168.47L128.69 239.055L128.69 114.34L128.69 97.8848Z"></path></g></svg>